<svg width="35" height="35" viewBox="0 0 35 35" fill="none" xmlns="http://www.w3.org/2000/svg">
<g clip-path="url(#clip0)">
<path d="M33.8379 33.9062H21.1914V4.10156C21.1914 3.64766 21.5578 3.28125 22.0117 3.28125H33.0176C33.4715 3.28125 33.8379 3.64766 33.8379 4.10156V33.9062Z" fill="url(#paint0_linear)"/>
<path d="M26.682 27.0922H24.9731C24.6723 27.0922 24.4262 26.8461 24.4262 26.5453V24.9047C24.4262 24.6039 24.6723 24.3578 24.9731 24.3578H26.682C26.9828 24.3578 27.2289 24.6039 27.2289 24.9047V26.5453C27.2289 26.8488 26.9856 27.0922 26.682 27.0922Z" fill="#6D4C41"/>
<path d="M26.682 22.5367H24.9731C24.6723 22.5367 24.4262 22.2906 24.4262 21.9899V20.3492C24.4262 20.0485 24.6723 19.8024 24.9731 19.8024H26.682C26.9828 19.8024 27.2289 20.0485 27.2289 20.3492V21.9899C27.2289 22.1349 27.1713 22.274 27.0687 22.3766C26.9662 22.4791 26.8271 22.5367 26.682 22.5367Z" fill="#6D4C41"/>
<path d="M26.682 17.9785H24.9731C24.6723 17.9785 24.4262 17.7324 24.4262 17.4316V15.791C24.4262 15.4902 24.6723 15.2441 24.9731 15.2441H26.682C26.9828 15.2441 27.2289 15.4902 27.2289 15.791V17.4316C27.2289 17.5767 27.1713 17.7158 27.0687 17.8183C26.9662 17.9209 26.8271 17.9785 26.682 17.9785Z" fill="#6D4C41"/>
<path d="M26.682 13.125H24.9731C24.6723 13.125 24.4262 12.8789 24.4262 12.5781V10.9375C24.4262 10.6367 24.6723 10.3906 24.9731 10.3906H26.682C26.9828 10.3906 27.2289 10.6367 27.2289 10.9375V12.5781C27.2289 12.7232 27.1713 12.8623 27.0687 12.9648C26.9662 13.0674 26.8271 13.125 26.682 13.125Z" fill="#6D4C41"/>
<path d="M32.4242 27.0922H29.7582C29.4574 27.0922 29.2113 26.8461 29.2113 26.5453V24.9047C29.2113 24.6039 29.4574 24.3578 29.7582 24.3578H32.4242C32.725 24.3578 32.9711 24.6039 32.9711 24.9047V26.5453C32.9711 26.8488 32.7277 27.0922 32.4242 27.0922Z" fill="#6D4C41"/>
<path d="M32.4242 22.5367H29.7582C29.4574 22.5367 29.2113 22.2906 29.2113 21.9899V20.3492C29.2113 20.0485 29.4574 19.8024 29.7582 19.8024H32.4242C32.725 19.8024 32.9711 20.0485 32.9711 20.3492V21.9899C32.9711 22.1349 32.9135 22.274 32.8109 22.3766C32.7084 22.4791 32.5693 22.5367 32.4242 22.5367Z" fill="#6D4C41"/>
<path d="M32.4242 17.9785H29.7582C29.4574 17.9785 29.2113 17.7324 29.2113 17.4316V15.791C29.2113 15.4902 29.4574 15.2441 29.7582 15.2441H32.4242C32.725 15.2441 32.9711 15.4902 32.9711 15.791V17.4316C32.9711 17.5767 32.9135 17.7158 32.8109 17.8183C32.7084 17.9209 32.5693 17.9785 32.4242 17.9785Z" fill="#6D4C41"/>
<path d="M32.4242 13.125H29.7582C29.4574 13.125 29.2113 12.8789 29.2113 12.5781V10.9375C29.2113 10.6367 29.4574 10.3906 29.7582 10.3906H32.4242C32.725 10.3906 32.9711 10.6367 32.9711 10.9375V12.5781C32.9711 12.7232 32.9135 12.8623 32.8109 12.9648C32.7084 13.0674 32.5693 13.125 32.4242 13.125Z" fill="#6D4C41"/>
<path d="M24.6777 8.09924H26.8652V9.46643H24.6777V8.09924Z" fill="#C62828"/>
<path d="M24.6777 25.1562H26.8652V26.5234H24.6777V25.1562Z" fill="#C62828"/>
<path d="M25.1562 33.9062H1.09375V2.1875C1.09375 1.5832 1.5832 1.09375 2.1875 1.09375H24.0625C24.6668 1.09375 25.1562 1.5832 25.1562 2.1875V33.9062Z" fill="url(#paint1_linear)"/>
<path opacity="0.2" d="M24.0625 1.91406C24.2129 1.91406 24.3359 2.03711 24.3359 2.1875V3.28125C24.3359 3.73516 24.7023 4.10156 25.1562 4.10156H33.0176V33.0859H1.91406V2.1875C1.91406 2.03711 2.03711 1.91406 2.1875 1.91406H24.0625ZM24.0625 1.09375H2.1875C1.5832 1.09375 1.09375 1.5832 1.09375 2.1875V33.9062H33.8379V4.10156C33.8379 3.64766 33.4715 3.28125 33.0176 3.28125H25.1562V2.1875C25.1562 1.5832 24.6668 1.09375 24.0625 1.09375Z" fill="#424242"/>
<path d="M6.84962 26.5453H3.78165C3.48087 26.5453 3.23477 26.2992 3.23477 25.9984V24.418C3.23477 24.1172 3.48087 23.8711 3.78165 23.8711H6.84962C7.1504 23.8711 7.39649 24.1172 7.39649 24.418V25.9984C7.39649 26.302 7.15313 26.5453 6.84962 26.5453Z" fill="#6D4C41"/>
<path d="M6.84962 22.091H3.78165C3.48087 22.091 3.23477 21.8449 3.23477 21.5441V19.9636C3.23477 19.6628 3.48087 19.4167 3.78165 19.4167H6.84962C7.1504 19.4167 7.39649 19.6628 7.39649 19.9636V21.5441C7.39649 21.6891 7.33887 21.8282 7.23631 21.9308C7.13376 22.0334 6.99466 22.091 6.84962 22.091Z" fill="#6D4C41"/>
<path d="M6.84962 17.6339H3.78165C3.48087 17.6339 3.23477 17.3878 3.23477 17.0871V15.5066C3.23477 15.2058 3.48087 14.9597 3.78165 14.9597H6.84962C7.1504 14.9597 7.39649 15.2058 7.39649 15.5066V17.0871C7.39649 17.3906 7.15313 17.6339 6.84962 17.6339Z" fill="#6D4C41"/>
<path d="M6.84962 13.1769H3.78165C3.48087 13.1769 3.23477 12.9308 3.23477 12.63V11.0496C3.23477 10.7488 3.48087 10.5027 3.78165 10.5027H6.84962C7.1504 10.5027 7.39649 10.7488 7.39649 11.0496V12.63C7.39649 12.9335 7.15313 13.1769 6.84962 13.1769Z" fill="#6D4C41"/>
<path d="M14.5688 26.5453H11.5008C11.2 26.5453 10.9539 26.2992 10.9539 25.9984V24.418C10.9539 24.1172 11.2 23.8711 11.5008 23.8711H14.5688C14.8695 23.8711 15.1156 24.1172 15.1156 24.418V25.9984C15.1156 26.1435 15.058 26.2826 14.9555 26.3851C14.8529 26.4877 14.7138 26.5453 14.5688 26.5453Z" fill="#6D4C41"/>
<path d="M14.5688 22.091H11.5008C11.2 22.091 10.9539 21.8449 10.9539 21.5441V19.9636C10.9539 19.6628 11.2 19.4167 11.5008 19.4167H14.5688C14.8695 19.4167 15.1156 19.6628 15.1156 19.9636V21.5441C15.1156 21.8449 14.8695 22.091 14.5688 22.091Z" fill="#6D4C41"/>
<path d="M14.5688 17.6339H11.5008C11.2 17.6339 10.9539 17.3878 10.9539 17.0871V15.5066C10.9539 15.2058 11.2 14.9597 11.5008 14.9597H14.5688C14.8695 14.9597 15.1156 15.2058 15.1156 15.5066V17.0871C15.1156 17.2321 15.058 17.3712 14.9555 17.4738C14.8529 17.5763 14.7138 17.6339 14.5688 17.6339Z" fill="#6D4C41"/>
<path d="M14.5688 13.1769H11.5008C11.2 13.1769 10.9539 12.9308 10.9539 12.63V11.0496C10.9539 10.7488 11.2 10.5027 11.5008 10.5027H14.5688C14.8695 10.5027 15.1156 10.7488 15.1156 11.0496V12.63C15.1156 12.7751 15.058 12.9142 14.9555 13.0167C14.8529 13.1193 14.7138 13.1769 14.5688 13.1769Z" fill="#6D4C41"/>
<path d="M22.2852 26.5453H19.2172C18.9164 26.5453 18.6703 26.2992 18.6703 25.9984V24.418C18.6703 24.1172 18.9164 23.8711 19.2172 23.8711H22.2852C22.5859 23.8711 22.832 24.1172 22.832 24.418V25.9984C22.832 26.1435 22.7744 26.2826 22.6719 26.3851C22.5693 26.4877 22.4302 26.5453 22.2852 26.5453Z" fill="#6D4C41"/>
<path d="M22.2852 22.091H19.2172C18.9164 22.091 18.6703 21.8449 18.6703 21.5441V19.9636C18.6703 19.6628 18.9164 19.4167 19.2172 19.4167H22.2852C22.5859 19.4167 22.832 19.6628 22.832 19.9636V21.5441C22.832 21.8449 22.5859 22.091 22.2852 22.091Z" fill="#6D4C41"/>
<path d="M22.2852 17.6339H19.2172C18.9164 17.6339 18.6703 17.3878 18.6703 17.0871V15.5066C18.6703 15.2058 18.9164 14.9597 19.2172 14.9597H22.2852C22.5859 14.9597 22.832 15.2058 22.832 15.5066V17.0871C22.832 17.2321 22.7744 17.3712 22.6719 17.4738C22.5693 17.5763 22.4302 17.6339 22.2852 17.6339Z" fill="#6D4C41"/>
<path d="M22.2852 13.1769H19.2172C18.9164 13.1769 18.6703 12.9308 18.6703 12.63V11.0496C18.6703 10.7488 18.9164 10.5027 19.2172 10.5027H22.2852C22.5859 10.5027 22.832 10.7488 22.832 11.0496V12.63C22.832 12.7751 22.7744 12.9142 22.6719 13.0167C22.5693 13.1193 22.4302 13.1769 22.2852 13.1769Z" fill="#6D4C41"/>
<path d="M6.84962 8.7117H3.78165C3.48087 8.7117 3.23477 8.4656 3.23477 8.16482V6.58435C3.23477 6.28357 3.48087 6.03748 3.78165 6.03748H6.84962C7.1504 6.03748 7.39649 6.28357 7.39649 6.58435V8.16482C7.39649 8.46834 7.15313 8.7117 6.84962 8.7117Z" fill="#6D4C41"/>
<path d="M14.5688 8.7117H11.5008C11.2 8.7117 10.9539 8.4656 10.9539 8.16482V6.58435C10.9539 6.28357 11.2 6.03748 11.5008 6.03748H14.5688C14.8695 6.03748 15.1156 6.28357 15.1156 6.58435V8.16482C15.1156 8.30986 15.058 8.44896 14.9555 8.55152C14.8529 8.65408 14.7138 8.7117 14.5688 8.7117Z" fill="#6D4C41"/>
<path d="M22.2852 8.7117H19.2172C18.9164 8.7117 18.6703 8.4656 18.6703 8.16482V6.58435C18.6703 6.28357 18.9164 6.03748 19.2172 6.03748H22.2852C22.5859 6.03748 22.832 6.28357 22.832 6.58435V8.16482C22.832 8.30986 22.7744 8.44896 22.6719 8.55152C22.5693 8.65408 22.4302 8.7117 22.2852 8.7117Z" fill="#6D4C41"/>
<path d="M3.00781 30.0781H9.13828V33.9062H3.00781V30.0781Z" fill="#6D4C41"/>
<g opacity="0.2">
<path opacity="0.2" d="M3.00781 30.0781H3.77344V33.9062H3.00781V30.0781Z" fill="#424242"/>
<path opacity="0.2" d="M8.37265 30.0781H9.13827V33.9062H8.37265V30.0781Z" fill="#424242"/>
</g>
<path d="M10.0598 30.0781H16.1902V33.9062H10.0598V30.0781Z" fill="#6D4C41"/>
<g opacity="0.2">
<path opacity="0.2" d="M10.0598 30.0781H10.8254V33.9062H10.0598V30.0781Z" fill="#424242"/>
<path opacity="0.2" d="M15.4246 30.0781H16.1902V33.9062H15.4246V30.0781Z" fill="#424242"/>
</g>
<path d="M17.1117 30.0781H23.2422V33.9062H17.1117V30.0781Z" fill="#6D4C41"/>
<g opacity="0.2">
<path opacity="0.2" d="M17.1117 30.0781H17.8773V33.9062H17.1117V30.0781Z" fill="#424242"/>
<path opacity="0.2" d="M22.4766 30.0781H23.2422V33.9062H22.4766V30.0781Z" fill="#424242"/>
</g>
<path d="M23.9941 30.6469H2.3707C2.06992 30.6469 1.82382 30.4008 1.82382 30.1V30.0179H24.541V30.1C24.541 30.245 24.4834 30.3841 24.3808 30.4867C24.2783 30.5892 24.1392 30.6469 23.9941 30.6469Z" fill="#4DB6AC"/>
<path d="M24.541 30.1766H1.82382V29.5094C1.82382 29.359 1.94687 29.236 2.09726 29.236H24.2676C24.418 29.236 24.541 29.359 24.541 29.5094V30.1766Z" fill="#00796B"/>
<path d="M27.3437 28.6317C26.898 28.6317 26.5344 28.268 26.5344 27.8223V6.83599C26.5344 6.39028 26.898 6.02661 27.3437 6.02661H30.5074C30.9531 6.02661 31.3168 6.39028 31.3168 6.83599V27.8223C31.3168 28.268 30.9531 28.6317 30.5074 28.6317H27.3437Z" fill="#EF5350"/>
<path d="M30.5074 6.3082C30.7973 6.3082 31.0352 6.54609 31.0352 6.83594V27.8223C31.0352 28.1121 30.7973 28.35 30.5074 28.35H27.3437C27.0539 28.35 26.816 28.1121 26.816 27.8223V6.83594C26.816 6.54609 27.0539 6.3082 27.3437 6.3082H30.5074ZM30.5074 5.74219H27.3437C26.7395 5.74219 26.25 6.23164 26.25 6.83594V27.8223C26.25 28.4266 26.7395 28.916 27.3437 28.916H30.5074C31.1117 28.916 31.6012 28.4266 31.6012 27.8223V6.83594C31.6012 6.23164 31.1117 5.74219 30.5074 5.74219Z" fill="#C62828"/>
<path d="M-0.546875 1.09375H28.9379V3.23477H-0.546875V1.09375Z" fill="#BF360C"/>
</g>
<defs>
<linearGradient id="paint0_linear" x1="27.5133" y1="3.64574" x2="27.5133" y2="33.5426" gradientUnits="userSpaceOnUse">
<stop offset="0.177" stop-color="#BCAAA4"/>
<stop offset="0.366" stop-color="#B9A69F"/>
<stop offset="0.586" stop-color="#AE9991"/>
<stop offset="0.82" stop-color="#9E837A"/>
<stop offset="1" stop-color="#8D6E63"/>
</linearGradient>
<linearGradient id="paint1_linear" x1="13.125" y1="1.02539" x2="13.125" y2="34.1277" gradientUnits="userSpaceOnUse">
<stop offset="0.177" stop-color="#D7CCC8"/>
<stop offset="0.354" stop-color="#D3C8C3"/>
<stop offset="0.56" stop-color="#C9BAB5"/>
<stop offset="0.78" stop-color="#B8A59E"/>
<stop offset="1" stop-color="#A1887F"/>
</linearGradient>
<clipPath id="clip0">
<rect width="35" height="35" fill="white"/>
</clipPath>
</defs>
</svg>
