<svg width="35" height="35" viewBox="0 0 35 35" fill="none" xmlns="http://www.w3.org/2000/svg">
<g clip-path="url(#clip0)">
<path d="M7.52501 6.47497C7.51134 6.48317 7.63986 6.40387 7.59884 6.40114C7.62072 6.36012 7.65353 6.28903 7.659 6.16325C7.66173 6.10309 7.64806 6.032 7.62892 5.96911C7.61525 5.93903 7.60431 5.90895 7.58517 5.88708L7.5797 5.87887L7.57696 5.8734C7.56603 5.85153 7.59064 5.90348 7.5879 5.89528L7.58243 5.88708L7.54689 5.82965C7.52228 5.78864 7.52775 5.81598 7.51407 5.79684C7.39923 5.67653 7.18048 5.53981 6.89064 5.49333C6.86056 5.48786 6.80861 5.47965 6.79493 5.48239C6.74025 5.47419 6.66915 5.46598 6.65275 5.46872C6.60353 5.46598 6.50236 5.46872 6.42579 5.47692C6.26173 5.49059 6.09493 5.53434 5.93361 5.59723C5.72915 5.67442 5.54158 5.7905 5.38126 5.93903L5.36486 5.95544C5.35939 5.96091 5.4004 5.92262 5.38126 5.94176L5.34025 5.98278C5.31837 6.00465 5.28282 6.03747 5.27462 6.05114C5.24454 6.08942 5.17892 6.17692 5.13243 6.24801C4.93009 6.55153 4.82345 6.94801 4.86173 7.30895V7.33083C4.8672 7.36637 4.85626 7.28434 4.85626 7.29528L4.859 7.30895L4.88361 7.47301C4.88907 7.5195 4.89454 7.5277 4.90001 7.54411L4.91095 7.59606C4.93282 7.67809 4.96564 7.782 5.00665 7.87497C5.08868 8.06637 5.20626 8.25778 5.35118 8.44098C5.64376 8.80739 6.03751 9.14919 6.46681 9.4445C6.91251 9.74801 7.4047 10.0105 7.90236 10.3113C8.39728 10.6066 8.9004 10.9238 9.34884 11.3011C9.78087 11.6703 10.2184 12.116 10.4699 12.6957C10.5328 12.8351 10.582 13.0019 10.6094 13.1304C10.6477 13.3109 10.6586 13.4586 10.6586 13.6117C10.6562 13.9094 10.587 14.2028 10.4563 14.4703C10.3305 14.7273 10.1172 14.9597 9.91486 15.0882C9.87931 15.1129 9.84376 15.1347 9.80548 15.1539C9.77532 15.1702 9.74428 15.1848 9.71251 15.1976C9.65236 15.2277 9.59493 15.2441 9.53751 15.2632C9.42267 15.2988 9.31056 15.3179 9.20118 15.3261C8.77189 15.3562 8.43009 15.2004 8.23048 15.0363C8.13204 14.957 8.06368 14.8804 8.0254 14.8257L7.96798 14.7437C7.80939 14.5195 7.86134 14.2105 8.08556 14.0547C8.24415 13.9425 8.44376 13.9371 8.60509 14.0218L8.83751 14.1449C8.84025 14.1449 8.84845 14.1504 8.87579 14.1558C8.89767 14.1613 8.96603 14.1722 9.06447 14.1449C9.08907 14.1394 9.11095 14.1257 9.13282 14.1148C9.1465 14.1066 9.18751 14.0765 9.1629 14.0875C9.22032 14.0355 9.23126 13.9945 9.25861 13.9207C9.28048 13.8496 9.29142 13.7511 9.27775 13.6445C9.27228 13.5925 9.25587 13.5324 9.2422 13.5023C9.21759 13.423 9.19298 13.382 9.15743 13.3164C9.02345 13.073 8.75001 12.8105 8.37267 12.5453C8.009 12.28 7.57423 12.0367 7.08478 11.7879C6.59806 11.5418 6.05665 11.2656 5.50704 10.9265C4.9465 10.5765 4.39962 10.1472 3.93751 9.57575C3.70782 9.29137 3.50001 8.97145 3.33868 8.61325C3.25939 8.43005 3.19376 8.25505 3.13907 8.04723L3.10079 7.88044C3.08986 7.82575 3.07618 7.76286 3.07345 7.73551L3.04884 7.57145L3.04064 7.50036L3.0379 7.46208C2.97775 6.64176 3.21564 5.85973 3.64767 5.23083C3.76251 5.07223 3.87189 4.93825 4.03322 4.77965C4.0715 4.74137 4.0879 4.7277 4.11525 4.70309L4.15353 4.66755L4.18361 4.6402L4.22462 4.60739C4.29571 4.54723 4.36954 4.48981 4.44611 4.43786C4.74689 4.22458 5.07228 4.07419 5.4004 3.97301C5.73126 3.88005 6.06212 3.83356 6.38478 3.8363C6.55157 3.83903 6.69103 3.84723 6.8715 3.87731C6.96993 3.89098 7.01642 3.90465 7.07384 3.91559C7.17228 3.93473 7.23243 3.95387 7.309 3.97848C7.88595 4.16716 8.39454 4.51989 8.68712 5.01481C8.72267 5.07223 8.77736 5.1734 8.79103 5.21169L8.81564 5.27184L8.81837 5.28005L8.83204 5.31012L8.83478 5.31559L8.84298 5.3402L8.85939 5.39215C8.90587 5.52887 8.92775 5.66012 8.94142 5.7859C8.96329 6.03747 8.92501 6.26169 8.86759 6.45583C8.75001 6.84684 8.50665 7.11208 8.31251 7.2488C8.21134 7.32262 8.08556 7.38825 8.07462 7.38551C8.03907 7.39919 8.02267 7.40465 8.02267 7.40465C7.76564 7.54137 7.44571 7.4402 7.309 7.18317C7.27614 7.12261 7.25565 7.05611 7.24874 6.98755C7.24182 6.91899 7.24861 6.84975 7.26872 6.78384C7.28882 6.71793 7.32183 6.65668 7.36583 6.60365C7.40983 6.55063 7.46394 6.50688 7.52501 6.47497V6.47497Z" fill="url(#paint0_radial)"/>
<path d="M26.9828 7.40746C26.9828 7.40746 26.9664 7.40199 26.9309 7.38832C26.9199 7.38832 26.7914 7.32543 26.693 7.2516C26.4988 7.11488 26.2555 6.84965 26.1379 6.45863C26.0777 6.26449 26.0422 6.04028 26.0641 5.78871C26.0777 5.66293 26.0996 5.53168 26.1461 5.39496L26.1625 5.34301L26.1707 5.3184L26.1734 5.31293L26.1871 5.28285L26.1898 5.27465L26.2145 5.21449C26.2309 5.17621 26.2828 5.07231 26.3184 5.01762C26.6109 4.52543 27.1195 4.16996 27.6965 3.98129C27.7758 3.95668 27.8332 3.93754 27.9316 3.9184C27.9891 3.90473 28.0356 3.89379 28.134 3.88012C28.3172 3.85004 28.4539 3.84457 28.6207 3.8391C28.9434 3.83637 29.2742 3.88285 29.6051 3.97582C29.9332 4.07699 30.2586 4.22738 30.5594 4.44067C30.6359 4.49262 30.7098 4.55004 30.7809 4.6102L30.8219 4.64301L30.852 4.67035L30.8902 4.7059C30.9176 4.73324 30.934 4.74418 30.9723 4.78246C31.1336 4.94379 31.243 5.07504 31.3578 5.23363C31.7898 5.85981 32.0305 6.64457 31.9676 7.46488L31.9648 7.50317L31.9566 7.57426L31.932 7.73832C31.9293 7.7684 31.9156 7.82856 31.9047 7.88324L31.8664 8.05004C31.8117 8.25785 31.7461 8.43285 31.6668 8.61606C31.5082 8.97426 31.2977 9.29418 31.068 9.57856C30.6059 10.15 30.059 10.5793 29.4984 10.9293C28.9488 11.2684 28.4074 11.5418 27.9207 11.7907C27.4313 12.0395 26.9965 12.2829 26.6328 12.5481C26.2555 12.8133 25.982 13.0758 25.8481 13.3192C25.8125 13.3848 25.7879 13.4258 25.7633 13.5051C25.7496 13.5352 25.7359 13.5954 25.7277 13.6473C25.7113 13.7539 25.725 13.8524 25.7469 13.9235C25.7742 13.9973 25.7852 14.0383 25.8426 14.0903C25.8152 14.0766 25.859 14.1094 25.8727 14.1176C25.8945 14.1286 25.9164 14.1395 25.941 14.1477C26.0395 14.1778 26.1078 14.1668 26.1297 14.1586C26.157 14.1532 26.168 14.145 26.168 14.1477L26.3977 14.0247C26.6383 13.8961 26.9391 13.9864 27.0676 14.2297C27.1578 14.3993 27.1387 14.6016 27.0348 14.7493L26.9773 14.8313C26.9391 14.886 26.8734 14.9625 26.7723 15.0418C26.5754 15.2059 26.2309 15.359 25.8016 15.3317C25.6949 15.3235 25.5828 15.3043 25.4652 15.2688C25.4078 15.2497 25.3477 15.2305 25.2902 15.2032C25.2602 15.1895 25.2328 15.1786 25.1973 15.1594C25.1617 15.1375 25.1234 15.1157 25.0879 15.0938C24.8856 14.9653 24.6695 14.7329 24.5465 14.4758C24.4152 14.2133 24.3469 13.9207 24.3441 13.6172C24.3414 13.4641 24.3523 13.3164 24.3934 13.136C24.4207 13.0047 24.4699 12.8379 24.5328 12.7012C24.7844 12.1243 25.2219 11.6758 25.6539 11.3067C26.1023 10.9293 26.6055 10.6122 27.1004 10.3168C27.5981 10.0161 28.0902 9.75629 28.5359 9.45004C28.9652 9.15473 29.359 8.81567 29.6516 8.44653C29.7965 8.26332 29.9141 8.07192 29.9961 7.88051C30.0344 7.78754 30.0699 7.68363 30.0918 7.6016L30.1027 7.54965C30.1082 7.53324 30.1137 7.52231 30.1191 7.47856L30.1438 7.31449L30.1137 7.30082C30.1164 7.28989 30.0781 7.37192 30.0781 7.33637V7.3309L30.1109 7.31449C30.1492 6.95356 30.0563 6.55434 29.8566 6.25356C29.8102 6.17973 29.7527 6.09496 29.7227 6.05668C29.7145 6.04574 29.6816 6.0102 29.6625 5.98832L29.627 5.95278L29.6242 5.94731C29.6051 5.92817 29.6461 5.96645 29.6406 5.96098L29.6242 5.94457C29.5933 5.91421 29.5604 5.88589 29.5258 5.85981C29.3918 5.75043 29.2332 5.66567 29.0719 5.60278C28.9106 5.53988 28.741 5.49613 28.5797 5.48246C28.5004 5.46879 28.3992 5.46879 28.35 5.46879C28.3336 5.46606 28.2625 5.47426 28.2078 5.48246C28.1941 5.48246 28.1422 5.48793 28.1121 5.4934C27.8223 5.53988 27.6008 5.6766 27.4887 5.79692C27.4723 5.81606 27.4805 5.79145 27.4559 5.82973L27.4203 5.88715L27.4148 5.89535L27.4258 5.87348L27.4231 5.87895L27.4176 5.88715C27.3984 5.90903 27.3875 5.9391 27.3738 5.96918C27.3547 6.03207 27.341 6.10317 27.3438 6.16332C27.3492 6.28637 27.382 6.3602 27.4039 6.40121C27.3629 6.40395 27.4914 6.48324 27.4777 6.47504C27.7348 6.61176 27.8359 6.92895 27.6992 7.18871C27.5598 7.44574 27.2398 7.54418 26.9828 7.40746V7.40746Z" fill="url(#paint1_radial)"/>
<path d="M20.7047 24.3387C19.6328 23.8684 19.4113 21.875 19.3785 20.7812H19.8269C20.2727 20.7812 20.5078 20.3848 20.5078 19.9391V18.8426C20.5078 18.3969 20.2699 18.0469 19.8269 18.0469H15.173C14.7301 18.0469 14.4922 18.3969 14.4922 18.8426V19.9391C14.4922 20.3848 14.7301 20.7812 15.173 20.7812H15.6078C15.5695 21.875 15.3371 23.8684 14.2652 24.3387C12.6984 25.0277 12.507 25.5254 12.3922 26.3266C12.2773 27.1305 17.5137 27.1742 17.5137 27.1742C17.5137 27.1742 22.7227 27.1332 22.6078 26.3293C22.493 25.5281 22.2715 25.0277 20.7047 24.3387V24.3387Z" fill="url(#paint2_linear)"/>
<path d="M8.2879 2.57031C8.2879 2.57031 8.78283 20.0594 17.5 20.0594C26.2172 20.0594 26.7121 2.57031 26.7121 2.57031C22.5422 0.601562 12.4578 0.601562 8.2879 2.57031V2.57031Z" fill="url(#paint3_radial)"/>
<path d="M9.95038 26.3676H25.0496V32.9437H9.95038V26.3676Z" fill="#832B00"/>
<path d="M11.9301 27.4094H23.0727V31.7106H11.9301V27.4094Z" fill="url(#paint4_linear)"/>
<path d="M7.79022 31.902H27.2098V34.0129H7.79022V31.902Z" fill="#832B00"/>
<path opacity="0.2" d="M30.1109 7.30078C30.1082 7.30352 30.1055 7.30898 30.1027 7.31445L30.1109 7.30898V7.30078Z" fill="#424242"/>
<path opacity="0.2" d="M30.1027 7.31445L30.0781 7.32539V7.33086C30.0781 7.33906 30.0781 7.3418 30.0809 7.3418C30.0863 7.33906 30.0945 7.32539 30.1027 7.31445V7.31445Z" fill="#424242"/>
<path opacity="0.2" d="M17.5 1.91406C20.8852 1.91406 23.9477 2.35156 25.8645 3.09805C25.8426 3.45625 25.807 3.97578 25.7441 4.60742C25.7086 4.96016 25.9055 5.29375 26.2281 5.43594C26.3348 5.48242 26.4469 5.50703 26.559 5.50703C26.6027 5.50703 26.6438 5.5043 26.6875 5.49609C26.652 5.55898 26.6273 5.61367 26.6137 5.65195C26.6027 5.67383 26.5945 5.69844 26.5891 5.72305C26.5645 5.79961 26.5398 5.90625 26.5262 6.02656C26.4533 6.00549 26.3778 5.99535 26.302 5.99648C26.1045 5.99573 25.9135 6.06649 25.7642 6.19568C25.6149 6.32486 25.5175 6.50373 25.4898 6.69922C25.241 8.40547 24.9047 9.99414 24.4891 11.4187C24.3852 11.7797 24.5383 12.1625 24.8582 12.3539C24.9867 12.4305 25.1316 12.4687 25.2766 12.4687C25.3477 12.4687 25.4188 12.4605 25.4871 12.4414C25.3367 12.6 25.2164 12.7586 25.1289 12.9172C25.1262 12.9227 25.1234 12.9254 25.1207 12.9309L25.1098 12.95C25.077 13.0129 25.0305 13.0977 24.9867 13.2262C24.9539 13.3164 24.9266 13.423 24.9129 13.5242C24.7762 13.3957 24.5957 13.3109 24.3988 13.3C24.3824 13.3 24.3633 13.2973 24.3469 13.2973C24.016 13.2973 23.718 13.4941 23.5895 13.8031C22.5641 16.2668 21.4512 17.7215 19.9773 18.5199C19.7121 18.6621 19.548 18.941 19.548 19.2418V19.9391C19.548 20.002 19.5453 20.0539 19.5426 20.0977H19.3758C19.1543 20.0977 18.941 20.1879 18.7879 20.3465C18.7112 20.4252 18.6511 20.5185 18.6112 20.6209C18.5712 20.7233 18.5523 20.8327 18.5555 20.9426C18.6047 22.5258 18.9574 24.541 20.3738 25.1617C21.6262 25.7113 21.7164 25.941 21.7848 26.3812C21.7841 26.4894 21.8048 26.5967 21.8457 26.6968C21.8866 26.7969 21.9469 26.888 22.0232 26.9648C22.0994 27.0415 22.1901 27.1024 22.2899 27.144C22.3898 27.1856 22.4969 27.207 22.6051 27.207H24.1992V32.1289C24.1992 32.5828 24.5656 32.9492 25.0195 32.9492H26.3867V33.2227H8.33985V32.9492H9.70703C10.1609 32.9492 10.5273 32.5828 10.5273 32.1289V27.207H12.3949C12.6074 27.2072 12.8116 27.1249 12.9646 26.9775C13.1176 26.8301 13.2074 26.6291 13.2152 26.4168C13.2863 25.9383 13.3738 25.6949 14.5961 25.1562C16.0098 24.5355 16.3734 22.523 16.4281 20.9453C16.4363 20.7238 16.3543 20.5078 16.1984 20.3465C16.0426 20.1852 15.832 20.0949 15.6078 20.0949H15.2496C15.2141 20.0539 15.1758 19.9773 15.1758 19.9363V19.2391C15.1758 18.9574 15.0309 18.6949 14.793 18.5445C13.4176 17.6777 12.198 16.0371 11.2711 13.8004C11.2087 13.6508 11.1036 13.523 10.9688 13.433C10.8341 13.343 10.6757 13.2948 10.5137 13.2945C10.4973 13.2945 10.4781 13.2945 10.4617 13.2973C10.3216 13.3057 10.1861 13.35 10.068 13.4258C10.0543 13.3547 10.0324 13.2836 10.0105 13.2207C9.9668 13.0949 9.92305 13.0102 9.8875 12.9473L9.87656 12.9254C9.87383 12.9199 9.8711 12.9172 9.86836 12.9117C9.78086 12.7531 9.66055 12.5945 9.51016 12.4359C9.57852 12.4551 9.64961 12.4633 9.7207 12.4633C9.86289 12.4633 10.0078 12.425 10.1391 12.3484C10.4617 12.157 10.6148 11.7742 10.5082 11.4133C10.0953 9.98867 9.75899 8.4 9.50742 6.69375C9.47862 6.49879 9.38081 6.32064 9.23178 6.19168C9.08275 6.06272 8.89239 5.99152 8.69531 5.99102C8.61875 5.99102 8.54219 6.00195 8.4711 6.02109C8.46016 5.90078 8.43281 5.79414 8.40821 5.71758C8.4 5.6957 8.3918 5.66836 8.38086 5.64375C8.36719 5.6082 8.34258 5.55352 8.30703 5.49062C8.46272 5.51731 8.62284 5.49634 8.76641 5.43047C9.08906 5.28828 9.28594 4.95195 9.25039 4.60195C9.19024 3.97031 9.15195 3.45352 9.13008 3.09258C11.0523 2.3543 14.1148 1.91406 17.5 1.91406ZM6.36016 4.65664H6.39024C6.37656 4.65664 6.36016 4.65937 6.34649 4.65937C6.1086 4.68125 5.86797 4.74141 5.62735 4.83437C5.37305 4.93555 5.14883 5.06133 4.96563 5.21172C4.91641 5.25 4.86992 5.29102 4.81797 5.3375C4.80703 5.3457 4.7961 5.35937 4.78789 5.36758L4.73047 5.425C4.70039 5.45508 4.65938 5.49336 4.6211 5.54805C4.58828 5.5918 4.50625 5.6957 4.4461 5.79141C4.13438 6.25898 3.98672 6.83594 4.04141 7.37734V7.38008C4.04141 7.39922 4.04414 7.41836 4.04688 7.43477L4.05235 7.47578L4.06602 7.57695C4.07422 7.65625 4.08789 7.71367 4.10156 7.75742L4.10977 7.7875C4.10977 7.79297 4.1125 7.79844 4.1125 7.80391C4.14531 7.92969 4.19453 8.07461 4.24922 8.20312C4.3586 8.45742 4.51172 8.70898 4.70586 8.95781C5.03399 9.36797 5.46875 9.76172 6.00196 10.1254C6.32188 10.3441 6.65821 10.5383 6.9836 10.727C7.14492 10.8199 7.31172 10.9156 7.47852 11.0168C7.6918 11.1453 7.91055 11.2766 8.12383 11.4187C7.92422 11.3039 7.7 11.1836 7.44024 11.0523C6.97539 10.8145 6.44766 10.5465 5.9336 10.232C5.36485 9.87656 4.91641 9.49375 4.56641 9.06172C4.36133 8.81016 4.2 8.54766 4.08242 8.28516C4.01406 8.13203 3.96758 7.99805 3.92656 7.85039L3.89375 7.7082C3.88828 7.68086 3.88008 7.65351 3.87735 7.63164C3.87735 7.62617 3.87735 7.62344 3.87461 7.61797L3.85821 7.50859L3.85274 7.46758L3.84727 7.4293L3.84453 7.40742C3.80078 6.81406 3.96485 6.2125 4.30664 5.71211C4.39141 5.59726 4.47071 5.49883 4.60469 5.36484C4.61289 5.35664 4.61836 5.35391 4.6211 5.34844C4.63203 5.3375 4.64571 5.32656 4.65938 5.31289L4.69766 5.28008L4.71133 5.26641L4.74141 5.2418C4.79883 5.19531 4.85078 5.1543 4.91094 5.11328C5.11875 4.96562 5.35938 4.85078 5.62735 4.76602C5.87071 4.69766 6.11406 4.66211 6.34649 4.66211L6.36016 4.65664V4.65664ZM28.6508 4.65664C28.8859 4.65664 29.1266 4.69219 29.3699 4.76055C29.6379 4.84531 29.8785 4.96289 30.0945 5.11601C30.1465 5.15156 30.1984 5.18984 30.2613 5.24453L30.2832 5.26367L30.2996 5.28008L30.327 5.30469C30.3434 5.32109 30.357 5.33203 30.3707 5.34297C30.3762 5.34844 30.3816 5.35117 30.3926 5.36484C30.5238 5.49336 30.6031 5.5918 30.6879 5.70937C31.0295 6.20789 31.1924 6.80732 31.15 7.41016V7.4293L31.1445 7.46758L31.1391 7.51133L31.1227 7.6207C31.1227 7.62617 31.1227 7.62891 31.1199 7.63437C31.1172 7.65625 31.109 7.68359 31.1063 7.70273L31.0707 7.85586C31.0297 8.00351 30.9832 8.1375 30.9176 8.28789C30.7973 8.55312 30.6332 8.81562 30.4309 9.06992C30.0809 9.50195 29.6352 9.88476 29.0691 10.2375C28.5523 10.5547 28.0246 10.8254 27.5488 11.066C27.2973 11.1945 27.0758 11.3121 26.8789 11.427C27.0922 11.2848 27.3109 11.1535 27.5242 11.025C27.6883 10.9238 27.8551 10.8309 28.0164 10.7352C28.3418 10.5465 28.6809 10.3523 29.0008 10.1336C29.5313 9.76992 29.966 9.37617 30.2969 8.96328C30.4883 8.71992 30.6414 8.46836 30.7508 8.21133C30.8055 8.08555 30.8547 7.94062 30.8875 7.81484C30.8875 7.80937 30.8902 7.80391 30.8902 7.80117L30.8984 7.77109C30.9094 7.72734 30.9258 7.67266 30.934 7.59336L30.9477 7.49219L30.9559 7.4375C30.9695 7.33086 30.9641 7.22422 30.9395 7.12305C30.934 6.65547 30.7945 6.19062 30.543 5.81328C30.502 5.75312 30.4336 5.64648 30.3762 5.57266C30.3434 5.52891 30.3105 5.49336 30.2695 5.44961C30.2449 5.41953 30.2176 5.38945 30.1875 5.36211L30.182 5.35664C30.1301 5.30742 30.0836 5.26641 30.0344 5.22812C29.8484 5.07773 29.627 4.95195 29.3699 4.85078C29.1293 4.75508 28.8887 4.69766 28.6508 4.67578C28.6371 4.67578 28.6207 4.67305 28.607 4.67305H28.6289L28.6508 4.65664V4.65664ZM17.5 1.09375C13.9371 1.09375 10.3742 1.58594 8.28789 2.57031C8.28789 2.57031 8.3125 3.39609 8.43828 4.68672C8.14297 4.36133 7.74375 4.1207 7.30352 3.97578C7.22422 3.95117 7.1668 3.93203 7.06836 3.91289C7.00169 3.89631 6.93414 3.88353 6.86602 3.87461C6.68281 3.84453 6.5461 3.83906 6.3793 3.83359H6.34922C6.0375 3.83359 5.71485 3.88008 5.39492 3.97031C5.0668 4.07148 4.74141 4.22187 4.44063 4.43516C4.36406 4.48711 4.29024 4.54453 4.21914 4.60469L4.17813 4.6375L4.14805 4.66484L4.10977 4.70039C4.08242 4.72773 4.06602 4.73867 4.02774 4.77695C3.86641 4.93828 3.75703 5.06953 3.64219 5.22812C3.21016 5.8543 2.96953 6.63906 3.03242 7.45937L3.03516 7.49766L3.04336 7.56875L3.06797 7.73281C3.07071 7.76289 3.08438 7.82305 3.09531 7.87773L3.1336 8.04453C3.18828 8.25234 3.25391 8.42734 3.33321 8.61055C3.4918 8.96875 3.70235 9.28867 3.93203 9.57305C4.39414 10.1445 4.94102 10.5738 5.50156 10.9238C6.05117 11.2629 6.59258 11.5363 7.0793 11.7852C7.56875 12.034 8.00352 12.2773 8.36719 12.5426C8.74453 12.8078 9.01797 13.0703 9.15196 13.3137C9.1875 13.3793 9.21211 13.4203 9.23672 13.4996C9.25039 13.5297 9.26406 13.5898 9.27227 13.6418C9.28867 13.7484 9.275 13.8469 9.25313 13.918C9.22578 13.9918 9.21485 14.0328 9.15742 14.0848C9.16289 14.082 9.16563 14.082 9.16563 14.082C9.1711 14.082 9.14102 14.1039 9.12735 14.1121C9.10547 14.123 9.0836 14.134 9.05899 14.1422C9.00977 14.1559 8.96602 14.1613 8.9332 14.1613C8.90313 14.1613 8.87852 14.1559 8.86758 14.1531C8.84297 14.1477 8.83203 14.1395 8.8293 14.1395L8.59688 14.0164C8.52578 13.9781 8.44375 13.959 8.36446 13.959C8.27354 13.9582 8.18417 13.9825 8.10625 14.0294C8.02834 14.0763 7.96491 14.1438 7.92301 14.2245C7.88111 14.3052 7.86236 14.3959 7.86885 14.4866C7.87534 14.5773 7.90681 14.6644 7.95977 14.7383L8.01719 14.8203C8.05547 14.875 8.1211 14.9516 8.22227 15.0309C8.40274 15.1812 8.70899 15.3234 9.08906 15.3234C9.12188 15.3234 9.15742 15.3234 9.19297 15.3207C9.29961 15.3125 9.41172 15.2934 9.5293 15.2578C9.58672 15.2387 9.64688 15.2195 9.7043 15.1922C9.73438 15.1785 9.76172 15.1676 9.79727 15.1484C9.83282 15.1266 9.8711 15.1047 9.90664 15.0828C10.109 14.9543 10.325 14.7219 10.448 14.4648C10.5027 14.3527 10.4781 14.2352 10.5109 14.1148C11.416 16.2887 12.7121 18.2027 14.3527 19.2363V19.9336C14.3527 20.3793 14.7273 20.9125 15.1703 20.9125H15.6051C15.5668 22.0062 15.3344 23.9312 14.2625 24.4016C12.6957 25.0906 12.5043 25.5637 12.3895 26.3648C12.3867 26.3785 12.3922 26.3785 12.3922 26.3785H9.70703V32.1207H7.51953V34.0348H27.207V32.1207H25.0195V26.3785H22.6051C22.6051 26.3785 22.6105 26.343 22.6078 26.332C22.493 25.5281 22.2715 25.0934 20.7047 24.4043C19.6301 23.934 19.4086 22.0035 19.3758 20.9098H19.8242C20.2699 20.9098 20.3684 20.3766 20.3684 19.9309V19.2336C22.2824 18.1973 23.4445 16.2859 24.3469 14.1121C24.3797 14.2324 24.4563 14.35 24.5109 14.4621C24.6367 14.7191 24.8691 14.9516 25.0715 15.0801C25.107 15.1047 25.1508 15.1266 25.1891 15.1457C25.2246 15.1648 25.2547 15.1758 25.2848 15.1895C25.3449 15.2195 25.4051 15.2359 25.4625 15.2551C25.5773 15.2906 25.6922 15.3098 25.7988 15.318C25.8344 15.3207 25.8699 15.3207 25.9027 15.3207C26.2828 15.3207 26.5891 15.1785 26.7695 15.0281C26.868 14.9488 26.9363 14.8723 26.9746 14.8176L27.032 14.7355C27.1359 14.5879 27.1551 14.3855 27.0648 14.216C27.003 14.1002 26.8978 14.0136 26.7722 13.9752C26.6467 13.9368 26.511 13.9496 26.3949 14.0109L26.1652 14.134C26.1625 14.134 26.1516 14.1395 26.127 14.1477C26.116 14.1504 26.0941 14.1559 26.0613 14.1559C26.0285 14.1559 25.9875 14.1504 25.9355 14.1367C25.9109 14.1312 25.8891 14.1176 25.8672 14.1066C25.8563 14.0984 25.8234 14.0766 25.8289 14.0766C25.8289 14.0766 25.8316 14.0766 25.8371 14.0793C25.7797 14.0273 25.7688 13.9863 25.7414 13.9125C25.716 13.8228 25.7095 13.7287 25.7223 13.6363C25.7277 13.5844 25.7441 13.5242 25.7578 13.4941C25.7824 13.4148 25.807 13.3738 25.8426 13.3082C25.9766 13.0648 26.25 12.8023 26.6273 12.5371C26.991 12.2719 27.4258 12.0285 27.9152 11.7797C28.402 11.5336 28.9434 11.2574 29.493 10.9184C30.0535 10.5684 30.6004 10.1391 31.0625 9.56758C31.2922 9.2832 31.5 8.96328 31.6613 8.60508C31.7406 8.42187 31.8063 8.24687 31.8609 8.03906L31.8992 7.87227C31.9102 7.81758 31.9238 7.75469 31.9266 7.72734L31.9512 7.56328L31.9594 7.49219L31.9621 7.45391C32.0223 6.63359 31.7844 5.85156 31.3523 5.22266C31.2375 5.06406 31.1281 4.93008 30.9668 4.77148C30.9285 4.7332 30.9121 4.71953 30.8848 4.69492L30.8465 4.65937L30.8164 4.63203L30.7754 4.59922C30.7043 4.53906 30.6305 4.48164 30.5539 4.42969C30.2531 4.21641 29.9277 4.06602 29.5996 3.96484C29.2797 3.87461 28.957 3.82812 28.6453 3.82812H28.6152C28.4484 3.83086 28.309 3.83906 28.1285 3.86914C28.0301 3.88281 27.9836 3.89648 27.9262 3.90742C27.8277 3.92656 27.7676 3.9457 27.691 3.97031C27.2508 4.11523 26.8516 4.35586 26.5563 4.68125C26.682 3.39063 26.7066 2.56484 26.7066 2.56484C24.6258 1.58594 21.0629 1.09375 17.5 1.09375ZM28.2078 5.48242C28.2543 5.47695 28.3117 5.46875 28.3391 5.46875H28.3938C28.6251 5.46715 28.8545 5.51081 29.0691 5.59726C29.2736 5.67446 29.4612 5.79053 29.6215 5.93906L29.6379 5.95547L29.616 5.93633L29.6215 5.9418L29.6242 5.94727L29.6598 5.98281C29.6789 6.00469 29.7117 6.0375 29.7199 6.05117C29.75 6.08945 29.8074 6.17695 29.8539 6.24805C30.0535 6.54883 30.1438 6.93984 30.1082 7.29805L30.1109 7.29531L30.141 7.30898L30.1164 7.47305C30.1109 7.51953 30.1055 7.52773 30.1 7.54414L30.0891 7.59609C30.0672 7.67812 30.0344 7.78203 29.9934 7.875C29.9113 8.06641 29.7938 8.25781 29.6488 8.44102C29.3563 8.80742 28.9625 9.14922 28.5332 9.44453C28.0875 9.74805 27.5953 10.0105 27.0977 10.3113C26.6027 10.6066 26.0996 10.9238 25.6512 11.3012C25.5254 11.4105 25.3969 11.5254 25.2738 11.6484C25.7605 9.97226 26.0832 8.27969 26.2965 6.8168C26.4168 7.01367 26.559 7.16133 26.6848 7.25156C26.7832 7.32539 26.909 7.38828 26.9227 7.38828C26.9582 7.40195 26.9746 7.40742 26.9746 7.40742C27.0539 7.44844 27.1359 7.46758 27.2207 7.46758C27.4094 7.46758 27.5926 7.36641 27.6883 7.18594C27.825 6.92891 27.7238 6.60898 27.4668 6.47227C27.4586 6.4668 27.3574 6.40117 27.393 6.39844C27.3711 6.35742 27.3383 6.28633 27.3328 6.16055C27.3301 6.10039 27.3438 6.0293 27.3629 5.96641C27.3766 5.93633 27.3875 5.90625 27.4066 5.88437L27.4121 5.87617L27.4148 5.8707C27.4176 5.86797 27.4176 5.86523 27.4176 5.86523L27.4039 5.89258L27.4094 5.88437L27.4449 5.82695C27.4695 5.78594 27.4641 5.81328 27.4777 5.79414C27.5926 5.67383 27.8113 5.53711 28.1012 5.49062C28.1395 5.49062 28.1914 5.48242 28.2078 5.48242V5.48242ZM6.65 5.46875H6.66094C6.68828 5.46875 6.74571 5.47695 6.79219 5.48242C6.8086 5.48242 6.85781 5.49062 6.88789 5.49336C7.17774 5.53984 7.39922 5.67656 7.51133 5.79687C7.52774 5.81602 7.51953 5.79141 7.54414 5.82969L7.57969 5.88711L7.58516 5.89531L7.57149 5.86797C7.57149 5.86797 7.57149 5.8707 7.57422 5.87344L7.57695 5.87891L7.58242 5.88711C7.60156 5.90898 7.6125 5.93906 7.62617 5.96914C7.64531 6.03203 7.65899 6.10312 7.65625 6.16328C7.65078 6.28633 7.61797 6.36016 7.5961 6.40117C7.63438 6.40391 7.53321 6.46953 7.52227 6.475C7.26524 6.61172 7.1668 6.92891 7.30078 7.18867C7.39649 7.36914 7.57969 7.47031 7.76836 7.47031C7.85039 7.47031 7.93516 7.45117 8.01446 7.41016C8.01446 7.41016 8.03086 7.40469 8.06641 7.39102C8.08008 7.39102 8.20586 7.32812 8.3043 7.2543C8.43008 7.1668 8.575 7.01641 8.69258 6.81953C8.90586 8.28242 9.22852 9.97226 9.71524 11.6512C9.59417 11.5304 9.46828 11.4145 9.33789 11.3039C8.88946 10.9266 8.38633 10.6094 7.89141 10.3141C7.39375 10.0133 6.90156 9.75351 6.45586 9.44726C6.02656 9.15195 5.63281 8.81289 5.34024 8.44375C5.19531 8.26055 5.07774 8.06914 4.99571 7.87773C4.95816 7.7868 4.9262 7.69366 4.9 7.59883L4.89453 7.54687C4.88906 7.53047 4.8836 7.51953 4.87813 7.47578L4.86172 7.36641L4.85625 7.32539V7.31172C4.81797 6.95078 4.92461 6.55156 5.12696 6.25078C5.17344 6.17695 5.23906 6.09219 5.26914 6.05391C5.27735 6.04297 5.31289 6.00742 5.33477 5.98555L5.37578 5.94453C5.40586 5.91445 5.43867 5.88711 5.47422 5.85977C5.60821 5.75039 5.7668 5.66562 5.92813 5.60273C6.08946 5.53984 6.25899 5.49609 6.42031 5.48242C6.48047 5.47148 6.5543 5.46875 6.60625 5.46875H6.65V5.46875Z" fill="#424242"/>
</g>
<defs>
<radialGradient id="paint0_radial" cx="0" cy="0" r="1" gradientUnits="userSpaceOnUse" gradientTransform="translate(4.19263 6.10665) scale(9.31301)">
<stop stop-color="#C28605"/>
<stop offset="0.133" stop-color="#CB991C"/>
<stop offset="0.374" stop-color="#D9B73F"/>
<stop offset="0.572" stop-color="#E2C955"/>
<stop offset="0.699" stop-color="#E5D05D"/>
</radialGradient>
<radialGradient id="paint1_radial" cx="0" cy="0" r="1" gradientUnits="userSpaceOnUse" gradientTransform="translate(28.1641 9.58375) scale(4.87894)">
<stop stop-color="#C28605"/>
<stop offset="0.133" stop-color="#CB991C"/>
<stop offset="0.374" stop-color="#D9B73F"/>
<stop offset="0.572" stop-color="#E2C955"/>
<stop offset="0.699" stop-color="#E5D05D"/>
</radialGradient>
<linearGradient id="paint2_linear" x1="12.3903" y1="22.6105" x2="22.6097" y2="22.6105" gradientUnits="userSpaceOnUse">
<stop offset="0.076" stop-color="#DA9A14"/>
<stop offset="0.112" stop-color="#DB9E19"/>
<stop offset="0.153" stop-color="#DDA827"/>
<stop offset="0.196" stop-color="#E0B93E"/>
<stop offset="0.24" stop-color="#E5D05D"/>
<stop offset="0.319" stop-color="#E4CB55"/>
<stop offset="0.441" stop-color="#E1BD3F"/>
<stop offset="0.591" stop-color="#DCA61C"/>
<stop offset="0.684" stop-color="#D99502"/>
<stop offset="1" stop-color="#C28605"/>
</linearGradient>
<radialGradient id="paint3_radial" cx="0" cy="0" r="1" gradientUnits="userSpaceOnUse" gradientTransform="translate(13.3985 7.24609) scale(17.7975)">
<stop offset="0.066" stop-color="#FFF48A"/>
<stop offset="0.141" stop-color="#FCEE82"/>
<stop offset="0.258" stop-color="#F4DD6C"/>
<stop offset="0.401" stop-color="#E8C248"/>
<stop offset="0.564" stop-color="#D69D17"/>
<stop offset="0.627" stop-color="#CF8D02"/>
<stop offset="1" stop-color="#C28605"/>
</radialGradient>
<linearGradient id="paint4_linear" x1="13.0353" y1="25.8645" x2="20.965" y2="32.427" gradientUnits="userSpaceOnUse">
<stop stop-color="#C28605"/>
<stop offset="0.104" stop-color="#CB991C"/>
<stop offset="0.292" stop-color="#D9B73F"/>
<stop offset="0.447" stop-color="#E2C955"/>
<stop offset="0.546" stop-color="#E5D05D"/>
<stop offset="0.667" stop-color="#E0B93E"/>
<stop offset="0.788" stop-color="#DDA827"/>
<stop offset="0.902" stop-color="#DB9E19"/>
<stop offset="1" stop-color="#DA9A14"/>
</linearGradient>
<clipPath id="clip0">
<rect width="35" height="35" fill="white"/>
</clipPath>
</defs>
</svg>
