<svg width="35" height="35" viewBox="0 0 35 35" fill="none" xmlns="http://www.w3.org/2000/svg">
<path d="M29.4446 2.28242C29.1239 1.96159 27.3096 3.25528 25.3923 5.17197C23.475 7.08865 22.1808 8.90252 22.5015 9.22335C22.8222 9.54418 24.6365 8.25048 26.5538 6.3338C28.4711 4.41711 29.7653 2.60325 29.4446 2.28242Z" fill="#EDC26E"/>
<path d="M4.83333 22.1047C2.69778 23.7771 1.19497 25.4242 1.47497 25.7786C1.75497 26.1357 3.71333 25.0715 5.84559 23.3992C7.98114 21.7274 9.48559 20.0851 9.20559 19.728C8.92669 19.3692 6.96997 20.4351 4.83333 22.1047Z" fill="#EDC26E"/>
<path d="M29.9994 22.1047C32.1344 23.7771 33.6383 25.4242 33.3589 25.7786C33.0789 26.1357 31.1205 25.0715 28.9883 23.3992C26.8522 21.7274 25.3483 20.0851 25.6272 19.728C25.9061 19.3692 27.8628 20.4351 29.9994 22.1047Z" fill="#EDC26E"/>
<path d="M18.1617 29.3743C18.1634 32.083 17.7964 34.2825 17.342 34.2825C16.8892 34.2847 16.52 32.0841 16.52 29.3765C16.5157 26.6635 16.8821 24.4656 17.3349 24.4656C17.7893 24.4656 18.1574 26.664 18.1617 29.3743Z" fill="#EDC26E"/>
<path d="M11.7528 9.22249C12.0735 8.90162 10.779 7.08793 8.86146 5.17152C6.9439 3.2551 5.12945 1.96166 4.80877 2.28253C4.48808 2.60341 5.7826 4.41709 7.70016 6.33351C9.61771 8.24992 11.4322 9.54337 11.7528 9.22249Z" fill="#EDC26E"/>
<path d="M30.7781 11.2235L20.2508 11.1738L17.0461 0.524475L13.8414 11.1738L3.31409 11.2235L11.8606 18.0228L7.53924 29.6166L17.0461 22.2496L26.5535 29.6166L22.2327 18.0228L30.7781 11.2235Z" fill="#EDC26E"/>
<path d="M27.0375 12.7039L20.2508 11.4554L17.0461 5.75586L13.8414 11.4554L7.30188 12.775L11.8606 18.3039L10.6657 25.6698L17.0461 22.5323L23.6031 25.737L22.2327 18.3039L27.0375 12.7039Z" fill="#FAEC78"/>
</svg>
