<svg width="35" height="35" viewBox="0 0 35 35" fill="none" xmlns="http://www.w3.org/2000/svg">
<path d="M27.043 21.834C26.7012 21.2133 27.1359 20.5817 27.8797 19.7996C29.0582 18.5582 30.3406 15.6789 29.1484 12.7559C29.1567 12.7395 28.9133 12.2473 28.9215 12.2309L28.432 12.2063C28.2762 12.1844 22.8922 12.1735 17.5027 12.1735C12.1133 12.1735 6.72931 12.1844 6.57345 12.2063C6.57345 12.2063 5.84884 12.7395 5.85431 12.7559C4.66485 15.6789 5.94454 18.5555 7.12306 19.7996C7.86407 20.5817 8.29884 21.2133 7.95978 21.834C7.62892 22.4383 6.64454 22.5258 6.64454 22.5258C6.64454 22.5258 6.87149 23.1438 7.41837 23.4774C7.92423 23.7864 8.54767 23.8574 8.97696 23.8684C8.97696 23.8684 10.6586 26.1953 15.0555 26.1953H19.95C24.3469 26.1953 26.0285 23.8684 26.0285 23.8684C26.4578 23.8574 27.0813 23.7864 27.5871 23.4774C28.134 23.1438 28.3609 22.5258 28.3609 22.5258C28.3609 22.5258 27.3738 22.4383 27.043 21.834V21.834Z" fill="#312D2D"/>
<path d="M17.4973 26.1926V23.6113L25.3094 22.9933L26.0203 23.8683C26.0203 23.8683 24.3387 26.1953 19.9418 26.1953L17.4973 26.1926V26.1926Z" fill="url(#paint0_radial)"/>
<path d="M26.0039 22.739C24.8336 20.9617 27.4285 20.2972 27.4285 20.2972L27.4312 20.3C26.9801 20.8605 26.775 21.35 27.0402 21.834C27.3711 22.4383 28.3554 22.5258 28.3554 22.5258C28.3554 22.5258 27.0129 23.7179 26.0039 22.739Z" fill="url(#paint1_radial)"/>
<path d="M29.1539 12.7558C30.316 15.5859 29.0938 18.5008 27.9481 19.7312C27.7922 19.9008 27.125 20.5543 26.9719 21.0766C26.9719 21.0766 24.3633 17.4371 23.584 15.2988C23.4281 14.8668 23.2832 14.4238 23.2641 13.9644C23.2504 13.6199 23.3024 13.2098 23.502 12.9172C23.7453 12.559 29.0145 12.4523 29.0145 12.4523C29.0145 12.4551 29.1539 12.7558 29.1539 12.7558V12.7558Z" fill="url(#paint2_radial)"/>
<path d="M5.85156 12.7558C4.69218 15.5859 5.91445 18.5008 7.05742 19.7285C7.21601 19.898 7.88046 20.5515 8.03359 21.0738C8.03359 21.0738 10.6422 17.4344 11.4215 15.2961C11.5801 14.864 11.7223 14.4211 11.7414 13.9617C11.7551 13.6172 11.7031 13.207 11.5035 12.9144C11.2602 12.5562 10.9758 12.6519 10.5629 12.6519C9.77538 12.6519 6.32734 12.4496 6.05937 12.4496C6.0621 12.4551 5.85156 12.7558 5.85156 12.7558V12.7558Z" fill="url(#paint3_radial)"/>
<path d="M17.5082 26.1926V23.6113L9.69611 22.9933L8.98517 23.8683C8.98517 23.8683 10.6668 26.1953 15.0637 26.1953L17.5082 26.1926Z" fill="url(#paint4_radial)"/>
<path d="M9.00156 22.739C10.1719 20.9617 7.57695 20.2972 7.57695 20.2972L7.57421 20.3C8.02539 20.8605 8.23046 21.35 7.96523 21.834C7.63437 22.4383 6.64999 22.5258 6.64999 22.5258C6.64999 22.5258 7.99257 23.7179 9.00156 22.739Z" fill="url(#paint5_radial)"/>
<path d="M17.5383 26.25H17.5C10.4863 26.2582 3.28125 28.1914 3.28125 33.0832V33.8898H31.7188V33.0832C31.7188 28.4703 24.582 26.25 17.5383 26.25Z" fill="url(#paint6_linear)"/>
<path d="M20.5133 24.9867H14.4867L12.6848 26.9336L15.2769 30.9504L17.5 28.2051L19.723 30.9504L22.3152 26.9336L20.5133 24.9867Z" fill="url(#paint7_linear)"/>
<path d="M17.6586 30.5184H17.3605C17.0352 30.5184 16.7535 30.2942 16.6769 29.977L16.5621 29.4985C16.4582 29.0582 17.016 28.6344 17.5246 28.6344C18.0332 28.6344 18.5527 29.0528 18.4516 29.493L18.3422 29.9715C18.2711 30.2942 17.9867 30.5184 17.6586 30.5184V30.5184Z" fill="#1565C0"/>
<path d="M14.257 30.934V28.3637C14.257 28.0437 14.6043 27.8414 14.8859 27.9973L17.1664 29.2633C17.4508 29.4219 17.4562 29.8293 17.1719 29.9906L14.8914 31.2977C14.607 31.4562 14.257 31.2566 14.257 30.934V30.934Z" fill="#1565C0"/>
<path d="M20.65 30.934V28.3637C20.65 28.0437 20.3027 27.8414 20.0211 27.9973L17.7406 29.2633C17.4562 29.4219 17.4508 29.8293 17.7351 29.9906L20.0156 31.2977C20.2972 31.4562 20.65 31.2566 20.65 30.934V30.934Z" fill="#1565C0"/>
<path d="M17.5 23.059H15.0172V25.7879C15.0172 27.0211 16.0289 28.0219 17.2758 28.0219H17.7269C18.9738 28.0219 19.9855 27.0211 19.9855 25.7879V23.059H17.5Z" fill="#EDC391"/>
<path d="M24.9731 13.7895H10.027C8.41642 13.7895 7.09845 15.195 7.09845 16.9094C7.09845 18.6239 8.41642 20.0293 10.027 20.0293H24.9703C26.5809 20.0293 27.8988 18.6239 27.8988 16.9094C27.8988 15.195 26.5836 13.7895 24.9731 13.7895V13.7895Z" fill="#EDC391"/>
<path d="M17.5 3.02698C12.7422 3.02698 8.33438 8.11565 8.33438 15.441C8.33438 22.7254 12.8762 26.3266 17.5 26.3266C22.1238 26.3266 26.6656 22.7227 26.6656 15.4383C26.6656 8.11565 22.2578 3.02698 17.5 3.02698V3.02698Z" fill="#F9DDBD"/>
<path d="M14.9844 13.6227C14.7301 13.2863 14.1449 12.7996 13.0074 12.7996C11.8699 12.7996 11.2821 13.2891 11.0305 13.6227C10.9184 13.7703 10.9457 13.9426 11.025 14.0465C11.0961 14.1422 11.3094 14.2324 11.5446 14.1531C11.7797 14.0738 12.2391 13.836 13.0074 13.8305C13.7758 13.836 14.2352 14.0738 14.4703 14.1531C14.7055 14.2324 14.9188 14.1449 14.9899 14.0465C15.0664 13.9426 15.0965 13.7703 14.9844 13.6227V13.6227Z" fill="#454140"/>
<path d="M23.9723 13.6227C23.718 13.2863 23.1328 12.7996 21.9953 12.7996C20.8578 12.7996 20.2699 13.2891 20.0184 13.6227C19.9063 13.7703 19.9336 13.9426 20.0129 14.0465C20.084 14.1422 20.2973 14.2324 20.5324 14.1531C20.7676 14.0738 21.227 13.836 21.9953 13.8305C22.7637 13.836 23.2231 14.0738 23.4582 14.1531C23.6934 14.2324 23.9067 14.1449 23.9778 14.0465C24.0543 13.9426 24.0844 13.7703 23.9723 13.6227Z" fill="#454140"/>
<path d="M13.0047 17.4754C13.7492 17.4754 14.3527 16.8511 14.3527 16.0809C14.3527 15.3107 13.7492 14.6863 13.0047 14.6863C12.2602 14.6863 11.6566 15.3107 11.6566 16.0809C11.6566 16.8511 12.2602 17.4754 13.0047 17.4754Z" fill="#312D2D"/>
<path d="M21.9953 17.4754C22.7398 17.4754 23.3434 16.8511 23.3434 16.0809C23.3434 15.3107 22.7398 14.6863 21.9953 14.6863C21.2508 14.6863 20.6473 15.3107 20.6473 16.0809C20.6473 16.8511 21.2508 17.4754 21.9953 17.4754Z" fill="#312D2D"/>
<path d="M18.5555 18.6102C18.5254 18.5993 18.4981 18.5911 18.468 18.5883H16.532C16.502 18.5911 16.4719 18.5993 16.4445 18.6102C16.2695 18.6813 16.1738 18.8618 16.2559 19.0559C16.3379 19.25 16.7235 19.7914 17.5 19.7914C18.2766 19.7914 18.6621 19.2473 18.7442 19.0559C18.8262 18.8618 18.7305 18.6813 18.5555 18.6102V18.6102Z" fill="#DBA689"/>
<path d="M19.8023 20.8196C18.9328 21.3364 16.0754 21.3364 15.2059 20.8196C14.7055 20.5215 14.1941 20.9782 14.402 21.4321C14.607 21.8778 16.1629 22.9141 17.5109 22.9141C18.859 22.9141 20.3957 21.8778 20.6008 21.4321C20.8059 20.9782 20.3027 20.5215 19.8023 20.8196Z" fill="#444444"/>
<path d="M28.4567 6.86603C27.7895 5.85705 26.2938 4.50353 24.9512 4.41329C24.7352 3.12267 23.3543 2.02892 22.0172 1.60509C18.3996 0.459388 16.0453 1.74454 14.7821 2.43361C14.5196 2.57579 12.8215 3.51915 11.6348 2.84376C10.891 2.41993 10.9047 1.27423 10.9047 1.27423C10.9047 1.27423 8.57502 2.1629 9.37073 4.63751C8.56955 4.67033 7.51955 5.00939 6.96448 6.13322C6.30276 7.47306 6.53791 8.59142 6.72932 9.12736C6.04026 9.71251 5.17346 10.9567 5.76682 12.5727C6.21526 13.7895 8.0008 14.35 8.0008 14.35C7.87502 16.5402 8.28245 17.8883 8.49846 18.4324C8.53674 18.5281 8.67073 18.5199 8.69534 18.4215C8.96604 17.336 9.89026 13.5543 9.79729 12.8953C9.79729 12.8953 12.9008 12.2801 15.8594 10.1008C16.461 9.65783 17.1145 9.28048 17.809 9.00431C21.525 7.52501 22.3016 10.0488 22.3016 10.0488C22.3016 10.0488 24.8774 9.55392 25.6539 13.1305C25.9465 14.4703 26.1434 16.6168 26.3102 18.118C26.3211 18.2246 26.466 18.2465 26.5071 18.1481C26.7668 17.552 27.2864 16.3707 27.4094 15.1649C27.4531 14.741 28.5961 14.1805 29.0883 12.3594C29.7473 9.93126 28.9406 7.59611 28.4567 6.86603V6.86603Z" fill="#312D2D"/>
<path d="M27.4039 15.1758C27.4477 14.752 28.5906 14.1914 29.0828 12.3704C29.1348 12.1762 29.1785 11.9793 29.2196 11.7825C29.6188 9.57035 28.9024 7.53871 28.4567 6.86605C27.8387 5.93363 26.5153 4.70863 25.2602 4.45707C25.1508 4.4434 25.0442 4.42972 24.943 4.42426C24.943 4.42426 25.0332 5.01215 24.7953 5.47972C24.4891 6.08676 23.8629 6.23168 23.8629 6.23168C27.136 9.50746 26.9035 12.2473 27.4039 15.1758Z" fill="url(#paint8_radial)"/>
<path d="M15.5723 2.02074C15.2715 2.16566 15.009 2.31058 14.7793 2.43363C14.5168 2.57582 12.8187 3.51918 11.632 2.84379C10.902 2.42816 10.902 1.31801 10.902 1.27972C10.5656 1.70902 9.54844 4.77425 12.5234 4.97933C13.8059 5.06683 14.5961 3.94847 15.0664 3.00238C15.2359 2.65785 15.5012 2.15472 15.5723 2.02074V2.02074Z" fill="url(#paint9_radial)"/>
<path d="M21.6453 1.49571C23.6469 2.03711 24.623 3.05703 24.9484 4.41602C25.0441 4.81524 25.159 8.53945 18.0496 4.30664C15.4055 2.73164 16.1273 1.74727 16.4363 1.63516C17.6449 1.19766 19.4031 0.888674 21.6453 1.49571V1.49571Z" fill="url(#paint10_radial)"/>
<path d="M10.8938 1.2797C10.891 1.28243 10.8856 1.28243 10.8774 1.2879H10.8746C10.6203 1.39454 8.62151 2.3215 9.368 4.63751L11.4953 4.97931C9.61136 3.07072 10.902 1.27423 10.902 1.27423C10.902 1.27423 10.8965 1.27697 10.8938 1.2797Z" fill="url(#paint11_radial)"/>
<path d="M10.6832 4.84806L9.36797 4.63751C9.31602 4.63751 9.14102 4.65392 9.04532 4.66759C8.3043 4.7715 7.43203 5.15431 6.95899 6.13322C6.45039 7.18868 6.46407 8.09376 6.60352 8.69806C6.64453 8.9004 6.72657 9.13009 6.72657 9.13009C6.72657 9.13009 7.37735 8.51212 8.92774 8.47111L10.6832 4.84806Z" fill="url(#paint12_radial)"/>
<path d="M6.66369 9.18207C6.01564 9.75629 5.14337 11.0387 5.78595 12.6301C6.26994 13.8305 7.99806 14.35 7.99806 14.35C7.99806 14.3555 8.34259 14.4594 8.52033 14.4594L8.92501 8.47113C8.0965 8.47113 7.3008 8.71996 6.78673 9.07816C6.79494 9.08637 6.66095 9.17387 6.66369 9.18207Z" fill="url(#paint13_radial)"/>
<defs>
<radialGradient id="paint0_radial" cx="0" cy="0" r="1" gradientUnits="userSpaceOnUse" gradientTransform="translate(21.4875 22.463) scale(6.40363 3.14547)">
<stop offset="0.728" stop-color="#454140" stop-opacity="0"/>
<stop offset="1" stop-color="#454140"/>
</radialGradient>
<radialGradient id="paint1_radial" cx="0" cy="0" r="1" gradientUnits="userSpaceOnUse" gradientTransform="translate(27.7951 21.5101) rotate(154.924) scale(1.89236 1.40387)">
<stop offset="0.663" stop-color="#454140"/>
<stop offset="1" stop-color="#454140" stop-opacity="0"/>
</radialGradient>
<radialGradient id="paint2_radial" cx="0" cy="0" r="1" gradientUnits="userSpaceOnUse" gradientTransform="translate(22.8908 16.1578) rotate(-94.2783) scale(8.31212 6.92761)">
<stop offset="0.725" stop-color="#454140" stop-opacity="0"/>
<stop offset="1" stop-color="#454140"/>
</radialGradient>
<radialGradient id="paint3_radial" cx="0" cy="0" r="1" gradientUnits="userSpaceOnUse" gradientTransform="translate(12.1156 16.1576) rotate(-85.7217) scale(8.31212 6.92761)">
<stop offset="0.725" stop-color="#454140" stop-opacity="0"/>
<stop offset="1" stop-color="#454140"/>
</radialGradient>
<radialGradient id="paint4_radial" cx="0" cy="0" r="1" gradientUnits="userSpaceOnUse" gradientTransform="translate(13.5185 22.463) rotate(180) scale(6.40363 3.14547)">
<stop offset="0.728" stop-color="#454140" stop-opacity="0"/>
<stop offset="1" stop-color="#454140"/>
</radialGradient>
<radialGradient id="paint5_radial" cx="0" cy="0" r="1" gradientUnits="userSpaceOnUse" gradientTransform="translate(7.21134 21.5102) rotate(25.0761) scale(1.89237 1.40387)">
<stop offset="0.663" stop-color="#454140"/>
<stop offset="1" stop-color="#454140" stop-opacity="0"/>
</radialGradient>
<linearGradient id="paint6_linear" x1="17.5" y1="26.1647" x2="17.5" y2="33.8239" gradientUnits="userSpaceOnUse">
<stop offset="0.003" stop-color="#E3F2FD"/>
<stop offset="0.225" stop-color="#D6ECFC"/>
<stop offset="0.635" stop-color="#B4DBFB"/>
<stop offset="1" stop-color="#90CAF9"/>
</linearGradient>
<linearGradient id="paint7_linear" x1="17.5" y1="30.5377" x2="17.5" y2="25.5522" gradientUnits="userSpaceOnUse">
<stop offset="0.5" stop-color="#F5F5F5"/>
<stop offset="1" stop-color="#DADADA"/>
</linearGradient>
<radialGradient id="paint8_radial" cx="0" cy="0" r="1" gradientUnits="userSpaceOnUse" gradientTransform="translate(22.4265 11.7719) rotate(72.0851) scale(9.74325 7.22925)">
<stop offset="0.699" stop-color="#454140" stop-opacity="0"/>
<stop offset="1" stop-color="#454140"/>
</radialGradient>
<radialGradient id="paint9_radial" cx="0" cy="0" r="1" gradientUnits="userSpaceOnUse" gradientTransform="translate(12.9284 1.14889) rotate(28.2026) scale(2.55478 3.02922)">
<stop offset="0.58" stop-color="#454140"/>
<stop offset="1" stop-color="#454140" stop-opacity="0"/>
</radialGradient>
<radialGradient id="paint10_radial" cx="0" cy="0" r="1" gradientUnits="userSpaceOnUse" gradientTransform="translate(18.638 5.78847) rotate(-157.19) scale(7.98973 4.49026)">
<stop offset="0.699" stop-color="#454140" stop-opacity="0"/>
<stop offset="1" stop-color="#454140"/>
</radialGradient>
<radialGradient id="paint11_radial" cx="0" cy="0" r="1" gradientUnits="userSpaceOnUse" gradientTransform="translate(11.9025 3.47947) scale(2.34473 2.8683)">
<stop offset="0.702" stop-color="#454140" stop-opacity="0"/>
<stop offset="1" stop-color="#454140"/>
</radialGradient>
<radialGradient id="paint12_radial" cx="0" cy="0" r="1" gradientUnits="userSpaceOnUse" gradientTransform="translate(11.5795 7.61835) rotate(-164.942) scale(4.39786 4.11559)">
<stop offset="0.66" stop-color="#454140" stop-opacity="0"/>
<stop offset="1" stop-color="#454140"/>
</radialGradient>
<radialGradient id="paint13_radial" cx="0" cy="0" r="1" gradientUnits="userSpaceOnUse" gradientTransform="translate(10.5373 11.8647) rotate(7.83355) scale(4.61741 6.48823)">
<stop offset="0.598" stop-color="#454140" stop-opacity="0"/>
<stop offset="1" stop-color="#454140"/>
</radialGradient>
</defs>
</svg>
