<svg width="35" height="35" viewBox="0 0 35 35" fill="none" xmlns="http://www.w3.org/2000/svg">
<path d="M7 0H28C29.9331 0 31.5 1.72231 31.5 3.84615V21.1538C31.5 23.2773 29.9331 25 28 25H7C5.0673 25 3.5 23.2773 3.5 21.1538V3.84615C3.5 1.72231 5.0673 0 7 0Z" fill="#EBEDEE"/>
<path d="M4.89999 35H5.59999L9.09999 31.1539H4.89999V35ZM25.9 31.1539L29.4 35H30.1V31.1539H25.9Z" fill="#212E3C"/>
<path d="M17.5 8.84616C17.2215 8.84616 16.9545 8.96772 16.7575 9.18411C16.5606 9.4005 16.45 9.69398 16.45 10C16.45 10.306 16.5606 10.5995 16.7575 10.8159C16.9545 11.0323 17.2215 11.1538 17.5 11.1538C17.7785 11.1538 18.0456 11.0323 18.2425 10.8159C18.4394 10.5995 18.55 10.306 18.55 10C18.55 9.69398 18.4394 9.4005 18.2425 9.18411C18.0456 8.96772 17.7785 8.84616 17.5 8.84616ZM11.9 5C11.6215 5 11.3545 5.12157 11.1575 5.33795C10.9606 5.55434 10.85 5.84783 10.85 6.15385C10.85 6.45987 10.9606 6.75335 11.1575 6.96974C11.3545 7.18613 11.6215 7.30769 11.9 7.30769C12.1785 7.30769 12.4456 7.18613 12.6425 6.96974C12.8394 6.75335 12.95 6.45987 12.95 6.15385C12.95 5.84783 12.8394 5.55434 12.6425 5.33795C12.4456 5.12157 12.1785 5 11.9 5ZM23.1 7.30769C23.3785 7.30769 23.6456 7.18613 23.8425 6.96974C24.0394 6.75335 24.15 6.45987 24.15 6.15385C24.15 5.84783 24.0394 5.55434 23.8425 5.33795C23.6456 5.12157 23.3785 5 23.1 5C22.8215 5 22.5545 5.12157 22.3575 5.33795C22.1606 5.55434 22.05 5.84783 22.05 6.15385C22.05 6.45987 22.1606 6.75335 22.3575 6.96974C22.5545 7.18613 22.8215 7.30769 23.1 7.30769ZM11.9 12.6923C11.6215 12.6923 11.3545 12.8139 11.1575 13.0303C10.9606 13.2467 10.85 13.5401 10.85 13.8462C10.85 14.1522 10.9606 14.4457 11.1575 14.662C11.3545 14.8784 11.6215 15 11.9 15C12.1785 15 12.4456 14.8784 12.6425 14.662C12.8394 14.4457 12.95 14.1522 12.95 13.8462C12.95 13.5401 12.8394 13.2467 12.6425 13.0303C12.4456 12.8139 12.1785 12.6923 11.9 12.6923ZM23.1 12.6923C22.8215 12.6923 22.5545 12.8139 22.3575 13.0303C22.1606 13.2467 22.05 13.5401 22.05 13.8462C22.05 14.1522 22.1606 14.4457 22.3575 14.662C22.5545 14.8784 22.8215 15 23.1 15C23.3785 15 23.6456 14.8784 23.8425 14.662C24.0394 14.4457 24.15 14.1522 24.15 13.8462C24.15 13.5401 24.0394 13.2467 23.8425 13.0303C23.6456 12.8139 23.3785 12.6923 23.1 12.6923Z" fill="#BDC3C7"/>
<path d="M3.5 24.6154H31.5V31.1538H3.5V24.6154Z" fill="#283848"/>
<path d="M31.5 13.8461C33.433 13.8461 35 15.5688 35 17.6923V27.3077C35 29.4319 33.433 31.1538 31.5 31.1538C29.567 31.1538 28 29.4319 28 27.3077V17.6923C28 15.5688 29.567 13.8461 31.5 13.8461Z" fill="#2C3E50"/>
<path d="M31.5 15.7692C32.6592 15.7692 33.6 16.8031 33.6 18.0769V26.9231C33.6 27.5351 33.3787 28.1221 32.9849 28.5549C32.5911 28.9876 32.0569 29.2308 31.5 29.2308C30.943 29.2308 30.4089 28.9876 30.0151 28.5549C29.6212 28.1221 29.4 27.5351 29.4 26.9231V18.0769C29.4 16.8031 30.3408 15.7692 31.5 15.7692Z" fill="#34495E"/>
<path d="M3.5 13.8461C5.4327 13.8461 7 15.5688 7 17.6923V27.3077C7 29.4319 5.4327 31.1538 3.5 31.1538C1.5673 31.1538 0 29.4319 0 27.3077L0 17.6923C0 15.5688 1.5673 13.8461 3.5 13.8461Z" fill="#2C3E50"/>
<path d="M3.49999 15.7692C4.65954 15.7692 5.59999 16.8031 5.59999 18.0769V26.9231C5.59999 27.5351 5.37874 28.1221 4.98492 28.5549C4.59109 28.9876 4.05695 29.2308 3.49999 29.2308C2.94304 29.2308 2.4089 28.9876 2.01507 28.5549C1.62124 28.1221 1.39999 27.5351 1.39999 26.9231V18.0769C1.39999 16.8031 2.34044 15.7692 3.49999 15.7692Z" fill="#34495E"/>
<path d="M7 24.6154H28V25.7692H7V24.6154Z" fill="#253241"/>
<path d="M7.17499 19.6154H27.825C28.4284 19.6154 29.007 19.8787 29.4337 20.3476C29.8603 20.8164 30.1 21.4523 30.1 22.1154C30.1 22.7784 29.8603 23.4143 29.4337 23.8831C29.007 24.352 28.4284 24.6154 27.825 24.6154H7.17499C6.57163 24.6154 5.99297 24.352 5.56633 23.8831C5.13968 23.4143 4.89999 22.7784 4.89999 22.1154C4.89999 21.4523 5.13968 20.8164 5.56633 20.3476C5.99297 19.8787 6.57163 19.6154 7.17499 19.6154Z" fill="#BDC3C7"/>
</svg>
