<svg width="35" height="35" viewBox="0 0 35 35" fill="none" xmlns="http://www.w3.org/2000/svg">
<path d="M24.369 32.9883C24.369 34.0616 21.3158 34.9317 17.5495 34.9317C13.7832 34.9317 10.73 34.0616 10.73 32.9883C10.73 32.1201 14.0277 29.5812 16.2298 28.6422V17.5081H18.8693V28.6422C21.0712 29.5812 24.369 32.1201 24.369 32.9883Z" fill="#D1CFC3"/>
<path d="M32.564 13.241C32.564 13.241 32.3593 26.0344 17.3911 26.0344C2.42286 26.0344 2.53497 13.241 2.53497 13.241C2.53497 13.2169 2.53825 13.194 2.53962 13.1704C2.63518 15.2927 9.31683 17.0057 17.5494 17.0057C25.7824 17.0057 32.4641 15.2927 32.5594 13.1702C32.5607 13.1938 32.564 13.2169 32.564 13.241Z" fill="#E5E4DF"/>
<path d="M17.5494 9.24304C9.2573 9.24304 2.53491 10.9807 2.53491 13.1244C2.53491 13.1397 2.53881 13.155 2.53956 13.1704C2.63513 15.2927 9.31678 17.0057 17.5494 17.0057C25.7823 17.0057 32.464 15.2926 32.5593 13.1702C32.5601 13.1548 32.5637 13.1397 32.5637 13.1244C32.5637 10.9807 25.8418 9.24304 17.5494 9.24304Z" fill="#D1CFC3"/>
<path d="M17.1354 13.9595C17.1354 15.0536 16.8695 16.0855 16.3992 16.9944C10.8813 16.8864 6.19857 16.0071 3.95611 14.7726C3.92299 14.5028 3.90637 14.2313 3.90634 13.9595C3.90634 10.3064 6.86774 7.34497 10.5209 7.34497C14.174 7.34497 17.1354 10.3064 17.1354 13.9595Z" fill="#77431D"/>
<path d="M30.1435 14.7817C30.1435 14.9368 30.1381 15.0905 30.1286 15.2432C27.4499 16.3044 22.8173 17.0058 17.5493 17.0058C16.9625 17.0058 16.3839 16.9968 15.8147 16.9799C15.5917 16.2685 15.4787 15.5273 15.4793 14.7818C15.4793 10.7324 18.762 7.44971 22.8114 7.44971C26.8608 7.44964 30.1435 10.7323 30.1435 14.7817Z" fill="#FFE1AB"/>
<path d="M28.1493 9.73291C28.1493 10.8742 27.224 11.7995 26.0827 11.7995C25.8826 11.7995 25.6894 11.7705 25.5064 11.7174C25.5384 12.5303 25.086 13.32 24.3003 13.6791C23.508 14.0411 22.6066 13.8602 22.0131 13.293C21.7499 14.1316 20.9666 14.74 20.0411 14.74C19.0626 14.74 18.2436 14.0598 18.0296 13.1466C17.6507 13.5869 17.0897 13.866 16.4632 13.866C15.3219 13.866 14.3966 12.9408 14.3966 11.7995C14.3966 11.7721 14.3976 11.7449 14.3987 11.7178C13.5141 11.9755 12.5339 11.6146 12.0432 10.785C11.4621 9.8027 11.7874 8.53532 12.7698 7.95426C12.9957 7.82047 13.2451 7.7311 13.5045 7.69094C13.4526 7.35428 13.4265 7.01413 13.4266 6.67348C13.4266 3.02036 16.388 0.05896 20.0411 0.05896C23.6942 0.05896 26.6556 3.02036 26.6556 6.67348C26.6556 7.03148 26.6268 7.38264 26.572 7.72526C27.4772 7.94503 28.1493 8.76029 28.1493 9.73291Z" fill="#FFA9BA"/>
</svg>
